<svg xmlns="http://www.w3.org/2000/svg" xmlns:xlink="http://www.w3.org/1999/xlink" id="processonSvg1000" viewBox="74.99999999999991 114.0 618.0680501638547 717.5555555555552" width="618.0680501638547" height="717.5555555555552"><defs id="ProcessOnDefs1001"><pattern id="ProcessOnPattern1011" patternUnits="userSpaceOnUse" width="240.0" height="240.0" patternTransform="matrix(0.5609375,0.0,0.0,0.9958333333333333,0.0,0.0)"><svg version="1.1" id="svg2" xmlns:svg="http://www.w3.org/2000/svg" xmlns:dc="http://purl.org/dc/elements/1.1/" xmlns:cc="http://creativecommons.org/ns#" xmlns:rdf="http://www.w3.org/1999/02/22-rdf-syntax-ns#" xmlns="http://www.w3.org/2000/svg" xmlns:xlink="http://www.w3.org/1999/xlink" x="0px" y="0px" width="240px" height="240px" viewBox="0 0 240 240" enable-background="new 0 0 240 240" xml:space="preserve"> <path fill="none" stroke="#000000" stroke-width="2" stroke-miterlimit="10" stroke-dasharray="8,8" d="M240,215.59 c0,13.48-10.93,24.41-24.41,24.41H26.41C12.929,240,2,229.07,2,215.59V26.41C2,12.928,12.929,2,26.41,2h189.18 C229.07,2,240,12.928,240,26.41V215.59z"/> </svg> </pattern><pattern id="ProcessOnPattern1016" patternUnits="userSpaceOnUse" width="240.0" height="240.0" patternTransform="matrix(0.5796875,0.0,0.0,1.0703125,0.0,0.0)"><svg version="1.1" id="svg2" xmlns:svg="http://www.w3.org/2000/svg" xmlns:dc="http://purl.org/dc/elements/1.1/" xmlns:cc="http://creativecommons.org/ns#" xmlns:rdf="http://www.w3.org/1999/02/22-rdf-syntax-ns#" xmlns="http://www.w3.org/2000/svg" xmlns:xlink="http://www.w3.org/1999/xlink" x="0px" y="0px" width="240px" height="240px" viewBox="0 0 240 240" enable-background="new 0 0 240 240" xml:space="preserve"> <path fill="none" stroke="#F58B16" stroke-width="2" stroke-miterlimit="10" stroke-dasharray="21,10" d="M239,219.961 c0,10.515-8.525,19.039-19.04,19.039H20.04C9.524,239,1,230.476,1,219.961V20.04C1,9.524,9.524,1,20.04,1h199.92 C230.475,1,239,9.524,239,20.04V219.961z"/> </svg> </pattern><pattern id="ProcessOnPattern1021" patternUnits="userSpaceOnUse" width="75.0" height="72.0" patternTransform="matrix(1.0,0.0,0.0,1.0,0.0,0.0)"><svg version="1.1" id="Layer_1" xmlns="http://www.w3.org/2000/svg" xmlns:xlink="http://www.w3.org/1999/xlink" x="0px" y="0px" width="75px" height="72px" viewBox="0 0 75 72" enable-background="new 0 0 75 72" xml:space="preserve"> <g> <path fill="#7D7C7C" d="M63.244,29.542c6.9,0,11.756,4.349,11.756,10.614v13.556h-6.135v-9.207h-1.66v9.207h-9.327 c-0.64-6.905-6.133-11.509-13.927-11.509h-5.365v-3.71c6.004-0.511,10.73-2.813,11.243-8.823c0.256,0,0.383,0,0.51,0h12.905V29.542 z"/> <path fill="#7D7C7C" d="M24.531,29.542c0.255,0,0.383,0,0.511,0c0.512,6.011,5.238,8.313,11.244,8.824v3.708h-5.239 c-7.794,0-13.287,4.732-13.927,11.511H8.049v-9.209H6.388v9.209H0V40.156c0-6.266,4.854-10.614,11.754-10.614H24.531z"/> <path fill="#7D7C7C" d="M43.951,47.829c6.898,0,11.755,4.35,11.755,10.614V72h-6.133v-9.207h-1.661V72H27.214v-9.207h-1.66V72 h-6.389V58.444c0-6.266,4.854-10.615,11.754-10.615H43.951L43.951,47.829z"/> <path fill="#7D7C7C" d="M18.143,3.197l10.222,7.29v3.197c0,5.755-4.601,10.486-10.222,10.486c-5.622,0-10.222-4.731-10.222-10.87 v-2.94L18.143,3.197z"/> <path fill="#7D7C7C" d="M56.729,3.197l10.222,7.29v3.197c0,5.755-4.601,10.486-10.222,10.486s-10.223-4.731-10.223-10.87v-2.94 L56.729,3.197z"/> <path fill="#7D7C7C" d="M37.436,17.393l9.07,6.395v2.813c0,5.115-4.087,9.208-9.07,9.208c-4.982,0-9.071-4.093-9.071-9.72v-2.431 L37.436,17.393z"/> <path fill="#D2D3D3" d="M56.855,0c5.621,0,10.223,4.731,10.223,10.359c0,5.755-4.602,10.486-10.223,10.486 s-10.222-4.732-10.222-10.486C46.634,4.604,51.234,0,56.855,0z"/> <path fill="#D2D3D3" d="M37.436,14.195c4.983,0,9.07,4.094,9.07,9.209s-4.087,9.208-9.07,9.208c-4.982,0-9.071-4.092-9.071-9.208 C28.364,18.416,32.453,14.195,37.436,14.195z"/> <path fill="#D2D3D3" d="M63.244,26.345c6.9,0,11.756,4.349,11.756,10.614v13.557h-6.135v-9.208h-1.66v9.208h-9.327 c-0.64-6.905-6.133-11.51-13.927-11.51h-5.365v-1.15c6.004-0.514,10.73-5.372,11.243-11.382c0.256,0,0.383,0,0.51,0h12.905V26.345z "/> <path fill="#D2D3D3" d="M24.531,26.345c0.255,0,0.383,0,0.511,0c0.512,6.011,5.238,10.87,11.244,11.384v1.149h-5.239 c-7.794,0-13.287,4.732-13.927,11.51H8.049v-9.209H6.388v9.209H0V36.959c0-6.266,4.854-10.614,11.754-10.614H24.531z"/> <path fill="#D2D3D3" d="M43.951,44.632c6.898,0,11.755,4.349,11.755,10.614v13.556h-6.133v-9.206h-1.661v9.206H27.214v-9.206h-1.66 v9.206h-6.389V55.246c0-6.266,4.854-10.613,11.754-10.613L43.951,44.632L43.951,44.632z"/> <path fill="#D2D3D3" d="M18.143,0c5.621,0,10.222,4.731,10.222,10.359c0,5.755-4.601,10.486-10.222,10.486 c-5.622,0-10.222-4.732-10.222-10.486C7.921,4.731,12.521,0,18.143,0z"/> </g> </svg> </pattern><marker id="ProcessOnMarker1031" markerUnits="userSpaceOnUse" orient="auto" markerWidth="16.23606797749979" markerHeight="10.550836550532098" viewBox="-1.0 -1.3763819204711736 16.23606797749979 10.550836550532098" refX="-1.0" refY="3.8990363547948754"><path id="ProcessOnPath1032" d="M12.0 3.8990363547948754L0.0 7.798072709589751V0.0Z" stroke="#323232" stroke-width="2.0" fill="#323232" transform="matrix(1.0,0.0,0.0,1.0,0.0,0.0)"/></marker><marker id="ProcessOnMarker1105" markerUnits="userSpaceOnUse" orient="auto" markerWidth="16.23606797749979" markerHeight="10.550836550532098" viewBox="-1.0 -1.3763819204711736 16.23606797749979 10.550836550532098" refX="-1.0" refY="3.8990363547948754"><path id="ProcessOnPath1106" d="M12.0 3.8990363547948754L0.0 7.798072709589751V0.0Z" stroke="#323232" stroke-width="2.0" fill="#323232" transform="matrix(1.0,0.0,0.0,1.0,0.0,0.0)"/></marker><marker id="ProcessOnMarker1112" markerUnits="userSpaceOnUse" orient="auto" markerWidth="16.23606797749979" markerHeight="10.550836550532098" viewBox="-1.0 -1.3763819204711736 16.23606797749979 10.550836550532098" refX="-1.0" refY="3.8990363547948754"><path id="ProcessOnPath1113" d="M12.0 3.8990363547948754L0.0 7.798072709589751V0.0Z" stroke="#323232" stroke-width="2.0" fill="#323232" transform="matrix(1.0,0.0,0.0,1.0,0.0,0.0)"/></marker><marker id="ProcessOnMarker1119" markerUnits="userSpaceOnUse" orient="auto" markerWidth="16.23606797749979" markerHeight="10.550836550532098" viewBox="-1.0 -1.3763819204711736 16.23606797749979 10.550836550532098" refX="-1.0" refY="3.8990363547948754"><path id="ProcessOnPath1120" d="M12.0 3.8990363547948754L0.0 7.798072709589751V0.0Z" stroke="#323232" stroke-width="2.0" fill="#323232" transform="matrix(1.0,0.0,0.0,1.0,0.0,0.0)"/></marker><marker id="ProcessOnMarker1126" markerUnits="userSpaceOnUse" orient="auto" markerWidth="16.23606797749979" markerHeight="10.550836550532098" viewBox="-1.0 -1.3763819204711736 16.23606797749979 10.550836550532098" refX="-1.0" refY="3.8990363547948754"><path id="ProcessOnPath1127" d="M12.0 3.8990363547948754L0.0 7.798072709589751V0.0Z" stroke="#323232" stroke-width="2.0" fill="#323232" transform="matrix(1.0,0.0,0.0,1.0,0.0,0.0)"/></marker><marker id="ProcessOnMarker1140" markerUnits="userSpaceOnUse" orient="auto" markerWidth="16.23606797749979" markerHeight="10.550836550532098" viewBox="-1.0 -1.3763819204711736 16.23606797749979 10.550836550532098" refX="-1.0" refY="3.8990363547948754"><path id="ProcessOnPath1141" d="M12.0 3.8990363547948754L0.0 7.798072709589751V0.0Z" stroke="#323232" stroke-width="2.0" fill="#323232" transform="matrix(1.0,0.0,0.0,1.0,0.0,0.0)"/></marker><marker id="ProcessOnMarker1147" markerUnits="userSpaceOnUse" orient="auto" markerWidth="16.23606797749979" markerHeight="10.550836550532098" viewBox="-1.0 -1.3763819204711736 16.23606797749979 10.550836550532098" refX="-1.0" refY="3.8990363547948754"><path id="ProcessOnPath1148" d="M12.0 3.8990363547948754L0.0 7.798072709589751V0.0Z" stroke="#323232" stroke-width="2.0" fill="#323232" transform="matrix(1.0,0.0,0.0,1.0,0.0,0.0)"/></marker><marker id="ProcessOnMarker1154" markerUnits="userSpaceOnUse" orient="auto" markerWidth="16.23606797749979" markerHeight="10.550836550532098" viewBox="-1.0 -1.3763819204711736 16.23606797749979 10.550836550532098" refX="-1.0" refY="3.8990363547948754"><path id="ProcessOnPath1155" d="M12.0 3.8990363547948754L0.0 7.798072709589751V0.0Z" stroke="#323232" stroke-width="2.0" fill="#323232" transform="matrix(1.0,0.0,0.0,1.0,0.0,0.0)"/></marker><marker id="ProcessOnMarker1161" markerUnits="userSpaceOnUse" orient="auto" markerWidth="16.23606797749979" markerHeight="10.550836550532098" viewBox="-1.0 -1.3763819204711736 16.23606797749979 10.550836550532098" refX="-1.0" refY="3.8990363547948754"><path id="ProcessOnPath1162" d="M12.0 3.8990363547948754L0.0 7.798072709589751V0.0Z" stroke="#323232" stroke-width="2.0" fill="#323232" transform="matrix(1.0,0.0,0.0,1.0,0.0,0.0)"/></marker><marker id="ProcessOnMarker1168" markerUnits="userSpaceOnUse" orient="auto" markerWidth="16.23606797749979" markerHeight="10.550836550532098" viewBox="-1.0 -1.3763819204711736 16.23606797749979 10.550836550532098" refX="-1.0" refY="3.8990363547948754"><path id="ProcessOnPath1169" d="M12.0 3.8990363547948754L0.0 7.798072709589751V0.0Z" stroke="#323232" stroke-width="2.0" fill="#323232" transform="matrix(1.0,0.0,0.0,1.0,0.0,0.0)"/></marker></defs><g id="ProcessOnG1002"><path id="ProcessOnPath1003" d="M74.99999999999991 114.0H693.0680501638545V831.5555555555552H74.99999999999989V114.0Z" fill="#ffffff"/><g id="ProcessOnG1004"><g id="ProcessOnG1005" transform="matrix(1.0,0.0,0.0,1.0,94.99999999999991,301.0956790123456)" opacity="1.0"><path id="ProcessOnPath1006" d="M0.0 0.0L195.0 0.0L195.0 207.0L0.0 207.0Z" stroke="#323232" stroke-width="2.0" stroke-dasharray="none" opacity="1.0" fill="#ffffff"/><g id="ProcessOnG1007" transform="matrix(1.0,0.0,0.0,1.0,10.0,0.0)"><text id="ProcessOnText1008" fill="#000000" font-size="13" x="86.5" y="13.325" font-family="微软雅黑" font-weight="normal" font-style="normal" text-decoration="none" family="微软雅黑" text-anchor="middle" size="13">Api Gateway</text></g></g><g id="ProcessOnG1009" transform="matrix(1.0,0.0,0.0,1.0,424.70833333333303,572.5555555555552)" opacity="1.0"><path id="ProcessOnPath1010" d="M0.0 0.0L134.625 0.0L134.625 239.0L0.0 239.0Z" stroke="none" stroke-width="0.0" stroke-dasharray="none" opacity="1.0" fill="url(#ProcessOnPattern1011)"/><g id="ProcessOnG1012" transform="matrix(1.0,0.0,0.0,1.0,0.0,0.0)"><text id="ProcessOnText1013" fill="#000000" font-size="13" x="66.3125" y="13.325" font-family="微软雅黑" font-weight="normal" font-style="normal" text-decoration="none" family="微软雅黑" text-anchor="middle" size="13">应用系统</text></g></g><g id="ProcessOnG1014" transform="matrix(1.0,0.0,0.0,1.0,425.79166666666714,277.298439643347)" opacity="1.0"><path id="ProcessOnPath1015" d="M0.0 0.0L139.125 0.0L139.125 256.875L0.0 256.875Z" stroke="none" stroke-width="0.0" stroke-dasharray="none" opacity="1.0" fill="url(#ProcessOnPattern1016)"/><g id="ProcessOnG1017" transform="matrix(1.0,0.0,0.0,1.0,0.0,0.0)"><text id="ProcessOnText1018" fill="#000000" font-size="13" x="68.5625" y="13.325" font-family="微软雅黑" font-weight="normal" font-style="normal" text-decoration="none" family="微软雅黑" text-anchor="middle" size="13">公共服务</text></g></g><g id="ProcessOnG1019" transform="matrix(1.0,0.0,0.0,1.0,117.0,134.0)" opacity="1.0"><path id="ProcessOnPath1020" d="M0.0 0.0L75.0 0.0L75.0 72.0L0.0 72.0Z" stroke="none" stroke-width="0.0" stroke-dasharray="none" opacity="1.0" fill="url(#ProcessOnPattern1021)"/></g><g id="ProcessOnG1022" transform="matrix(1.0,0.0,0.0,1.0,268.5,154.75)" opacity="1.0"><path id="ProcessOnPath1023" d="M8.450000000000001 0.0L84.5 0.0L84.5 48.5L8.450000000000001 48.5L8.450000000000001 38.800000000000004L0.0 38.800000000000004L0.0 29.099999999999998L8.450000000000001 29.099999999999998L8.450000000000001 19.400000000000002L0.0 19.400000000000002L0.0 9.700000000000001L8.450000000000001 9.700000000000001L8.450000000000001 0.0Z" stroke="#323232" stroke-width="2.0" stroke-dasharray="none" opacity="1.0" fill="#ffffff"/><path id="ProcessOnPath1024" d="M8.450000000000001 38.800000000000004L16.900000000000002 38.800000000000004L16.900000000000002 29.099999999999998L8.450000000000001 29.099999999999998M8.450000000000001 19.400000000000002L16.900000000000002 19.400000000000002L16.900000000000002 9.700000000000001L8.450000000000001 9.700000000000001" stroke="#323232" stroke-width="2.0" stroke-dasharray="none" opacity="1.0" fill="none"/><path id="ProcessOnPath1025" d="M8.450000000000001 0.0L84.5 0.0L84.5 48.5L8.450000000000001 48.5L8.450000000000001 38.800000000000004L0.0 38.800000000000004L0.0 29.099999999999998L8.450000000000001 29.099999999999998L8.450000000000001 19.400000000000002L0.0 19.400000000000002L0.0 9.700000000000001L8.450000000000001 9.700000000000001L8.450000000000001 0.0Z" stroke="none" stroke-width="0.0" stroke-dasharray="none" opacity="1.0" fill="none"/><g id="ProcessOnG1026" transform="matrix(1.0,0.0,0.0,1.0,15.5625,8.0)"><text id="ProcessOnText1027" fill="#000000" font-size="13" x="30.96875" y="13.325" font-family="微软雅黑" font-weight="bold" font-style="normal" text-decoration="none" family="微软雅黑" text-anchor="middle" size="13">LB</text><text id="ProcessOnText1028" fill="#000000" font-size="13" x="30.96875" y="29.575" font-family="微软雅黑" font-weight="bold" font-style="normal" text-decoration="none" family="微软雅黑" text-anchor="middle" size="13">负载均衡</text></g></g><g id="ProcessOnG1029"><path id="ProcessOnPath1030" d="M192.0 170.0L230.25 170.0L230.25 169.3L253.2639320225002 169.3" stroke="#323232" stroke-width="2.0" stroke-dasharray="none" fill="none" marker-end="url(#ProcessOnMarker1031)"/><g id="ProcessOnG1033" transform="matrix(1.0,0.0,0.0,1.0,222.9819660112501,161.875)"><path id="ProcessOnPath1034" d="M0 0H46.0V16.25H0Z" fill="#fff" transform="matrix(1.0,0.0,0.0,1.0,-23.0,0.0)"/><text id="ProcessOnText1035" fill="#000000" font-size="13" x="0.0" y="13.325" font-family="微软雅黑" font-weight="normal" font-style="normal" text-decoration="none" family="微软雅黑" text-anchor="middle" size="13">HTTP/S</text></g></g><g id="ProcessOnG1036" transform="matrix(1.0,0.0,0.0,1.0,420.7222222222217,151.26388888888889)" opacity="1.0"><path id="ProcessOnPath1037" d="M8.450000000000001 0.0L84.5 0.0L84.5 48.5L8.450000000000001 48.5L8.450000000000001 38.800000000000004L0.0 38.800000000000004L0.0 29.099999999999998L8.450000000000001 29.099999999999998L8.450000000000001 19.400000000000002L0.0 19.400000000000002L0.0 9.700000000000001L8.450000000000001 9.700000000000001L8.450000000000001 0.0Z" stroke="#323232" stroke-width="2.0" stroke-dasharray="none" opacity="1.0" fill="#ffffff"/><path id="ProcessOnPath1038" d="M8.450000000000001 38.800000000000004L16.900000000000002 38.800000000000004L16.900000000000002 29.099999999999998L8.450000000000001 29.099999999999998M8.450000000000001 19.400000000000002L16.900000000000002 19.400000000000002L16.900000000000002 9.700000000000001L8.450000000000001 9.700000000000001" stroke="#323232" stroke-width="2.0" stroke-dasharray="none" opacity="1.0" fill="none"/><path id="ProcessOnPath1039" d="M8.450000000000001 0.0L84.5 0.0L84.5 48.5L8.450000000000001 48.5L8.450000000000001 38.800000000000004L0.0 38.800000000000004L0.0 29.099999999999998L8.450000000000001 29.099999999999998L8.450000000000001 19.400000000000002L0.0 19.400000000000002L0.0 9.700000000000001L8.450000000000001 9.700000000000001L8.450000000000001 0.0Z" stroke="none" stroke-width="0.0" stroke-dasharray="none" opacity="1.0" fill="none"/><g id="ProcessOnG1040" transform="matrix(1.0,0.0,0.0,1.0,15.5625,8.0)"><text id="ProcessOnText1041" fill="#000000" font-size="13" x="30.96875" y="13.325" font-family="微软雅黑" font-weight="bold" font-style="normal" text-decoration="none" family="微软雅黑" text-anchor="middle" size="13">nginx</text><text id="ProcessOnText1042" fill="#000000" font-size="13" x="30.96875" y="29.575" font-family="微软雅黑" font-weight="bold" font-style="normal" text-decoration="none" family="微软雅黑" text-anchor="middle" size="13">1-n台</text></g></g><g id="ProcessOnG1043" transform="matrix(1.0,0.0,0.0,1.0,450.91666666666714,468.923439643347)" opacity="1.0"><path id="ProcessOnPath1044" d="M0.0 5.333333333333333L79.0 5.333333333333333L79.0 48.0L0.0 48.0L0.0 5.333333333333333Z" stroke="#323232" stroke-width="2.0" stroke-dasharray="none" opacity="1.0" fill="#ffffff"/><path id="ProcessOnPath1045" d="M0.0 5.333333333333333L9.875 0.0L88.875 0.0L88.875 42.666666666666664L79.0 48.0L79.0 5.333333333333333L0.0 5.333333333333333ZM79.0 5.333333333333333L88.875 0.0" stroke="#323232" stroke-width="2.0" stroke-dasharray="none" opacity="1.0" fill="#e6e6e6"/><path id="ProcessOnPath1046" d="M0.0 0.0L88.875 0.0L88.875 48.0L0.0 48.0Z" stroke="none" stroke-width="0.0" stroke-dasharray="none" opacity="1.0" fill="none"/><g id="ProcessOnG1047" transform="matrix(1.0,0.0,0.0,1.0,10.0,10.416666666666664)"><text id="ProcessOnText1048" fill="#000000" font-size="13" x="28.5" y="13.325" font-family="微软雅黑" font-weight="bold" font-style="normal" text-decoration="none" family="微软雅黑" text-anchor="middle" size="13">ACL</text><text id="ProcessOnText1049" fill="#000000" font-size="13" x="28.5" y="29.575" font-family="微软雅黑" font-weight="bold" font-style="normal" text-decoration="none" family="微软雅黑" text-anchor="middle" size="13">鉴权</text></g></g><g id="ProcessOnG1050" transform="matrix(1.0,0.0,0.0,1.0,450.91666666666714,300.173439643347)" opacity="1.0"><path id="ProcessOnPath1051" d="M0.0 5.333333333333333L79.0 5.333333333333333L79.0 48.0L0.0 48.0L0.0 5.333333333333333Z" stroke="#323232" stroke-width="2.0" stroke-dasharray="none" opacity="1.0" fill="#ffffff"/><path id="ProcessOnPath1052" d="M0.0 5.333333333333333L9.875 0.0L88.875 0.0L88.875 42.666666666666664L79.0 48.0L79.0 5.333333333333333L0.0 5.333333333333333ZM79.0 5.333333333333333L88.875 0.0" stroke="#323232" stroke-width="2.0" stroke-dasharray="none" opacity="1.0" fill="#e6e6e6"/><path id="ProcessOnPath1053" d="M0.0 0.0L88.875 0.0L88.875 48.0L0.0 48.0Z" stroke="none" stroke-width="0.0" stroke-dasharray="none" opacity="1.0" fill="none"/><g id="ProcessOnG1054" transform="matrix(1.0,0.0,0.0,1.0,10.0,10.416666666666664)"><text id="ProcessOnText1055" fill="#000000" font-size="13" x="28.5" y="13.325" font-family="微软雅黑" font-weight="bold" font-style="normal" text-decoration="none" family="微软雅黑" text-anchor="middle" size="13">Config</text><text id="ProcessOnText1056" fill="#000000" font-size="13" x="28.5" y="29.575" font-family="微软雅黑" font-weight="bold" font-style="normal" text-decoration="none" family="微软雅黑" text-anchor="middle" size="13">配置</text></g></g><g id="ProcessOnG1057" transform="matrix(1.0,0.0,0.0,1.0,450.91666666666714,410.548439643347)" opacity="1.0"><path id="ProcessOnPath1058" d="M0.0 5.333333333333333L79.0 5.333333333333333L79.0 48.0L0.0 48.0L0.0 5.333333333333333Z" stroke="#323232" stroke-width="2.0" stroke-dasharray="none" opacity="1.0" fill="#ffffff"/><path id="ProcessOnPath1059" d="M0.0 5.333333333333333L9.875 0.0L88.875 0.0L88.875 42.666666666666664L79.0 48.0L79.0 5.333333333333333L0.0 5.333333333333333ZM79.0 5.333333333333333L88.875 0.0" stroke="#323232" stroke-width="2.0" stroke-dasharray="none" opacity="1.0" fill="#e6e6e6"/><path id="ProcessOnPath1060" d="M0.0 0.0L88.875 0.0L88.875 48.0L0.0 48.0Z" stroke="none" stroke-width="0.0" stroke-dasharray="none" opacity="1.0" fill="none"/><g id="ProcessOnG1061" transform="matrix(1.0,0.0,0.0,1.0,10.0,10.416666666666664)"><text id="ProcessOnText1062" fill="#000000" font-size="13" x="28.5" y="13.325" font-family="微软雅黑" font-weight="bold" font-style="normal" text-decoration="none" family="微软雅黑" text-anchor="middle" size="13">SSO</text><text id="ProcessOnText1063" fill="#000000" font-size="13" x="28.5" y="29.575" font-family="微软雅黑" font-weight="bold" font-style="normal" text-decoration="none" family="微软雅黑" text-anchor="middle" size="13">单点登陆</text></g></g><g id="ProcessOnG1064" transform="matrix(1.0,0.0,0.0,1.0,450.5833333333329,742.5555555555552)" opacity="1.0"><path id="ProcessOnPath1065" d="M0.0 5.333333333333333L79.0 5.333333333333333L79.0 48.0L0.0 48.0L0.0 5.333333333333333Z" stroke="#323232" stroke-width="2.0" stroke-dasharray="none" opacity="1.0" fill="#ffffff"/><path id="ProcessOnPath1066" d="M0.0 5.333333333333333L9.875 0.0L88.875 0.0L88.875 42.666666666666664L79.0 48.0L79.0 5.333333333333333L0.0 5.333333333333333ZM79.0 5.333333333333333L88.875 0.0" stroke="#323232" stroke-width="2.0" stroke-dasharray="none" opacity="1.0" fill="#e6e6e6"/><path id="ProcessOnPath1067" d="M0.0 0.0L88.875 0.0L88.875 48.0L0.0 48.0Z" stroke="none" stroke-width="0.0" stroke-dasharray="none" opacity="1.0" fill="none"/><g id="ProcessOnG1068" transform="matrix(1.0,0.0,0.0,1.0,10.0,10.416666666666664)"><text id="ProcessOnText1069" fill="#000000" font-size="13" x="28.5" y="13.325" font-family="微软雅黑" font-weight="bold" font-style="normal" text-decoration="none" family="微软雅黑" text-anchor="middle" size="13">award</text><text id="ProcessOnText1070" fill="#000000" font-size="13" x="28.5" y="29.575" font-family="微软雅黑" font-weight="bold" font-style="normal" text-decoration="none" family="微软雅黑" text-anchor="middle" size="13">发奖</text></g></g><g id="ProcessOnG1071" transform="matrix(1.0,0.0,0.0,1.0,450.5833333333329,675.5555555555552)" opacity="1.0"><path id="ProcessOnPath1072" d="M0.0 5.333333333333333L79.0 5.333333333333333L79.0 48.0L0.0 48.0L0.0 5.333333333333333Z" stroke="#323232" stroke-width="2.0" stroke-dasharray="none" opacity="1.0" fill="#ffffff"/><path id="ProcessOnPath1073" d="M0.0 5.333333333333333L9.875 0.0L88.875 0.0L88.875 42.666666666666664L79.0 48.0L79.0 5.333333333333333L0.0 5.333333333333333ZM79.0 5.333333333333333L88.875 0.0" stroke="#323232" stroke-width="2.0" stroke-dasharray="none" opacity="1.0" fill="#e6e6e6"/><path id="ProcessOnPath1074" d="M0.0 0.0L88.875 0.0L88.875 48.0L0.0 48.0Z" stroke="none" stroke-width="0.0" stroke-dasharray="none" opacity="1.0" fill="none"/><g id="ProcessOnG1075" transform="matrix(1.0,0.0,0.0,1.0,10.0,10.416666666666664)"><text id="ProcessOnText1076" fill="#000000" font-size="13" x="28.5" y="13.325" font-family="微软雅黑" font-weight="bold" font-style="normal" text-decoration="none" family="微软雅黑" text-anchor="middle" size="13">award</text><text id="ProcessOnText1077" fill="#000000" font-size="13" x="28.5" y="29.575" font-family="微软雅黑" font-weight="bold" font-style="normal" text-decoration="none" family="微软雅黑" text-anchor="middle" size="13">抽奖</text></g></g><g id="ProcessOnG1078" transform="matrix(1.0,0.0,0.0,1.0,450.5833333333329,608.5555555555553)" opacity="1.0"><path id="ProcessOnPath1079" d="M0.0 5.333333333333333L79.0 5.333333333333333L79.0 48.0L0.0 48.0L0.0 5.333333333333333Z" stroke="#323232" stroke-width="2.0" stroke-dasharray="none" opacity="1.0" fill="#ffffff"/><path id="ProcessOnPath1080" d="M0.0 5.333333333333333L9.875 0.0L88.875 0.0L88.875 42.666666666666664L79.0 48.0L79.0 5.333333333333333L0.0 5.333333333333333ZM79.0 5.333333333333333L88.875 0.0" stroke="#323232" stroke-width="2.0" stroke-dasharray="none" opacity="1.0" fill="#e6e6e6"/><path id="ProcessOnPath1081" d="M0.0 0.0L88.875 0.0L88.875 48.0L0.0 48.0Z" stroke="none" stroke-width="0.0" stroke-dasharray="none" opacity="1.0" fill="none"/><g id="ProcessOnG1082" transform="matrix(1.0,0.0,0.0,1.0,10.0,10.416666666666664)"><text id="ProcessOnText1083" fill="#000000" font-size="13" x="28.5" y="13.325" font-family="微软雅黑" font-weight="bold" font-style="normal" text-decoration="none" family="微软雅黑" text-anchor="middle" size="13">gift</text><text id="ProcessOnText1084" fill="#000000" font-size="13" x="28.5" y="29.575" font-family="微软雅黑" font-weight="bold" font-style="normal" text-decoration="none" family="微软雅黑" text-anchor="middle" size="13">奖品</text></g></g><g id="ProcessOnG1085" transform="matrix(1.0,0.0,0.0,1.0,111.49999999999993,333.34567901234556)" opacity="1.0"><path id="ProcessOnPath1086" d="M15.412500000000001 0.0L154.125 0.0L154.125 41.25L15.412500000000001 41.25L15.412500000000001 33.0L0.0 33.0L0.0 24.75L15.412500000000001 24.75L15.412500000000001 16.5L0.0 16.5L0.0 8.25L15.412500000000001 8.25L15.412500000000001 0.0Z" stroke="#323232" stroke-width="2.0" stroke-dasharray="none" opacity="1.0" fill="#ffffff"/><path id="ProcessOnPath1087" d="M15.412500000000001 33.0L30.825000000000003 33.0L30.825000000000003 24.75L15.412500000000001 24.75M15.412500000000001 16.5L30.825000000000003 16.5L30.825000000000003 8.25L15.412500000000001 8.25" stroke="#323232" stroke-width="2.0" stroke-dasharray="none" opacity="1.0" fill="none"/><path id="ProcessOnPath1088" d="M15.412500000000001 0.0L154.125 0.0L154.125 41.25L15.412500000000001 41.25L15.412500000000001 33.0L0.0 33.0L0.0 24.75L15.412500000000001 24.75L15.412500000000001 16.5L0.0 16.5L0.0 8.25L15.412500000000001 8.25L15.412500000000001 0.0Z" stroke="none" stroke-width="0.0" stroke-dasharray="none" opacity="1.0" fill="none"/><g id="ProcessOnG1089" transform="matrix(1.0,0.0,0.0,1.0,24.265625,12.5)"><text id="ProcessOnText1090" fill="#000000" font-size="13" x="61.4296875" y="13.325" font-family="微软雅黑" font-weight="normal" font-style="normal" text-decoration="none" family="微软雅黑" text-anchor="middle" size="13">jm-server-config</text></g></g><g id="ProcessOnG1091" transform="matrix(1.0,0.0,0.0,1.0,111.49999999999993,390.0956790123456)" opacity="1.0"><path id="ProcessOnPath1092" d="M15.412500000000001 0.0L154.125 0.0L154.125 41.25L15.412500000000001 41.25L15.412500000000001 33.0L0.0 33.0L0.0 24.75L15.412500000000001 24.75L15.412500000000001 16.5L0.0 16.5L0.0 8.25L15.412500000000001 8.25L15.412500000000001 0.0Z" stroke="#323232" stroke-width="2.0" stroke-dasharray="none" opacity="1.0" fill="#ffffff"/><path id="ProcessOnPath1093" d="M15.412500000000001 33.0L30.825000000000003 33.0L30.825000000000003 24.75L15.412500000000001 24.75M15.412500000000001 16.5L30.825000000000003 16.5L30.825000000000003 8.25L15.412500000000001 8.25" stroke="#323232" stroke-width="2.0" stroke-dasharray="none" opacity="1.0" fill="none"/><path id="ProcessOnPath1094" d="M15.412500000000001 0.0L154.125 0.0L154.125 41.25L15.412500000000001 41.25L15.412500000000001 33.0L0.0 33.0L0.0 24.75L15.412500000000001 24.75L15.412500000000001 16.5L0.0 16.5L0.0 8.25L15.412500000000001 8.25L15.412500000000001 0.0Z" stroke="none" stroke-width="0.0" stroke-dasharray="none" opacity="1.0" fill="none"/><g id="ProcessOnG1095" transform="matrix(1.0,0.0,0.0,1.0,24.265625,12.5)"><text id="ProcessOnText1096" fill="#000000" font-size="13" x="61.4296875" y="13.325" font-family="微软雅黑" font-weight="normal" font-style="normal" text-decoration="none" family="微软雅黑" text-anchor="middle" size="13">jm-server-sso</text></g></g><g id="ProcessOnG1097" transform="matrix(1.0,0.0,0.0,1.0,111.49999999999993,447.0956790123456)" opacity="1.0"><path id="ProcessOnPath1098" d="M15.412500000000001 0.0L154.125 0.0L154.125 41.25L15.412500000000001 41.25L15.412500000000001 33.0L0.0 33.0L0.0 24.75L15.412500000000001 24.75L15.412500000000001 16.5L0.0 16.5L0.0 8.25L15.412500000000001 8.25L15.412500000000001 0.0Z" stroke="#323232" stroke-width="2.0" stroke-dasharray="none" opacity="1.0" fill="#ffffff"/><path id="ProcessOnPath1099" d="M15.412500000000001 33.0L30.825000000000003 33.0L30.825000000000003 24.75L15.412500000000001 24.75M15.412500000000001 16.5L30.825000000000003 16.5L30.825000000000003 8.25L15.412500000000001 8.25" stroke="#323232" stroke-width="2.0" stroke-dasharray="none" opacity="1.0" fill="none"/><path id="ProcessOnPath1100" d="M15.412500000000001 0.0L154.125 0.0L154.125 41.25L15.412500000000001 41.25L15.412500000000001 33.0L0.0 33.0L0.0 24.75L15.412500000000001 24.75L15.412500000000001 16.5L0.0 16.5L0.0 8.25L15.412500000000001 8.25L15.412500000000001 0.0Z" stroke="none" stroke-width="0.0" stroke-dasharray="none" opacity="1.0" fill="none"/><g id="ProcessOnG1101" transform="matrix(1.0,0.0,0.0,1.0,24.265625,12.5)"><text id="ProcessOnText1102" fill="#000000" font-size="13" x="61.4296875" y="13.325" font-family="微软雅黑" font-weight="normal" font-style="normal" text-decoration="none" family="微软雅黑" text-anchor="middle" size="13">jm-server-acl</text></g></g><g id="ProcessOnG1103"><path id="ProcessOnPath1104" d="M265.6250000000005 353.97067901234556C340.6939040390227 353.97067901234556 375.84776262764495 324.173439643347 435.68059868916737 324.173439643347" stroke="#323232" stroke-width="2.0" stroke-dasharray="none" fill="none" marker-end="url(#ProcessOnMarker1105)"/><g id="ProcessOnG1107" transform="matrix(1.0,0.0,0.0,1.0,356.36632483614636,330.9470593278463)"><path id="ProcessOnPath1108" d="M0 0H168.0V16.25H0Z" fill="#fff" transform="matrix(1.0,0.0,0.0,1.0,-84.0,0.0)"/><text id="ProcessOnText1109" fill="#000000" font-size="13" x="0.0" y="13.325" font-family="微软雅黑" font-weight="normal" font-style="normal" text-decoration="none" family="微软雅黑" text-anchor="middle" size="13">1 读取模块配置，完成初始化</text></g></g><g id="ProcessOnG1110"><path id="ProcessOnPath1111" d="M265.6250000000005 410.7206790123456C340.3519845908958 410.7206790123456 376.1896820757718 434.548439643347 435.68059868916737 434.548439643347" stroke="#323232" stroke-width="2.0" stroke-dasharray="none" fill="none" marker-end="url(#ProcessOnMarker1112)"/><g id="ProcessOnG1114" transform="matrix(1.0,0.0,0.0,1.0,356.36632483614636,414.5095593278463)"><path id="ProcessOnPath1115" d="M0 0H127.0V16.25H0Z" fill="#fff" transform="matrix(1.0,0.0,0.0,1.0,-63.5,0.0)"/><text id="ProcessOnText1116" fill="#000000" font-size="13" x="0.0" y="13.325" font-family="微软雅黑" font-weight="normal" font-style="normal" text-decoration="none" family="微软雅黑" text-anchor="middle" size="13">3.2 判断用户是否登陆</text></g></g><g id="ProcessOnG1117"><path id="ProcessOnPath1118" d="M265.6250000000005 467.7206790123456C340.42412393020135 467.7206790123456 376.1175427364663 492.923439643347 435.68059868916737 492.923439643347" stroke="#323232" stroke-width="2.0" stroke-dasharray="none" fill="none" marker-end="url(#ProcessOnMarker1119)"/><g id="ProcessOnG1121" transform="matrix(1.0,0.0,0.0,1.0,356.36632483614636,472.1970593278463)"><path id="ProcessOnPath1122" d="M0 0H166.0V16.25H0Z" fill="#fff" transform="matrix(1.0,0.0,0.0,1.0,-83.0,0.0)"/><text id="ProcessOnText1123" fill="#000000" font-size="13" x="0.0" y="13.325" font-family="微软雅黑" font-weight="normal" font-style="normal" text-decoration="none" family="微软雅黑" text-anchor="middle" size="13">3.3 判断用户是否有权限访问</text></g></g><g id="ProcessOnG1124"><path id="ProcessOnPath1125" d="M192.50000000000014 508.0956790123456C192.50000000000017 626.5942503098847 306.209762035794 692.0555555555552 409.47226535583326 692.0555555555552" stroke="#323232" stroke-width="2.0" stroke-dasharray="none" fill="none" marker-end="url(#ProcessOnMarker1126)"/><g id="ProcessOnG1128" transform="matrix(1.0,0.0,0.0,1.0,262.262693932902,636.3875815205276)"><path id="ProcessOnPath1129" d="M0 0H101.0V16.25H0Z" fill="#fff" transform="matrix(1.0,0.0,0.0,1.0,-50.5,0.0)"/><text id="ProcessOnText1130" fill="#000000" font-size="13" x="0.0" y="13.325" font-family="微软雅黑" font-weight="normal" font-style="normal" text-decoration="none" family="微软雅黑" text-anchor="middle" size="13">3.4 调用目标接口</text></g></g><g id="ProcessOnG1131" transform="matrix(1.0,0.0,0.0,1.0,450.91666666666714,356.923439643347)" opacity="1.0"><path id="ProcessOnPath1132" d="M0.0 5.333333333333333L79.0 5.333333333333333L79.0 48.0L0.0 48.0L0.0 5.333333333333333Z" stroke="#323232" stroke-width="2.0" stroke-dasharray="none" opacity="1.0" fill="#ffffff"/><path id="ProcessOnPath1133" d="M0.0 5.333333333333333L9.875 0.0L88.875 0.0L88.875 42.666666666666664L79.0 48.0L79.0 5.333333333333333L0.0 5.333333333333333ZM79.0 5.333333333333333L88.875 0.0" stroke="#323232" stroke-width="2.0" stroke-dasharray="none" opacity="1.0" fill="#e6e6e6"/><path id="ProcessOnPath1134" d="M0.0 0.0L88.875 0.0L88.875 48.0L0.0 48.0Z" stroke="none" stroke-width="0.0" stroke-dasharray="none" opacity="1.0" fill="none"/><g id="ProcessOnG1135" transform="matrix(1.0,0.0,0.0,1.0,10.0,10.416666666666664)"><text id="ProcessOnText1136" fill="#000000" font-size="13" x="28.5" y="13.325" font-family="微软雅黑" font-weight="bold" font-style="normal" text-decoration="none" family="微软雅黑" text-anchor="middle" size="13">Passport</text><text id="ProcessOnText1137" fill="#000000" font-size="13" x="28.5" y="29.575" font-family="微软雅黑" font-weight="bold" font-style="normal" text-decoration="none" family="微软雅黑" text-anchor="middle" size="13">验证</text></g></g><g id="ProcessOnG1138"><path id="ProcessOnPath1139" d="M429.47948770575914 197.6521207681072C328.21063807635085 244.87456088284728 170.0 189.37329855128905 170.0 285.8750431336113" stroke="#323232" stroke-width="2.0" stroke-dasharray="none" fill="none" marker-end="url(#ProcessOnMarker1140)"/><g id="ProcessOnG1142" transform="matrix(1.0,0.0,0.0,1.0,261.76392524185144,215.15884277551595)"><path id="ProcessOnPath1143" d="M0 0H75.0V16.25H0Z" fill="#fff" transform="matrix(1.0,0.0,0.0,1.0,-37.5,0.0)"/><text id="ProcessOnText1144" fill="#000000" font-size="13" x="0.0" y="13.325" font-family="微软雅黑" font-weight="normal" font-style="normal" text-decoration="none" family="微软雅黑" text-anchor="middle" size="13">2.1 用户登陆</text></g></g><g id="ProcessOnG1145"><path id="ProcessOnPath1146" d="M462.9722222222217 199.76388888888889C462.9722222222217 304.2487754148628 222.22222222222223 196.6262245851372 222.22222222222223 285.8750431336113" stroke="#323232" stroke-width="2.0" stroke-dasharray="none" fill="none" marker-end="url(#ProcessOnMarker1147)"/><g id="ProcessOnG1149" transform="matrix(1.0,0.0,0.0,1.0,342.597222222222,240.40799150281254)"><path id="ProcessOnPath1150" d="M0 0H116.0V16.25H0Z" fill="#fff" transform="matrix(1.0,0.0,0.0,1.0,-58.0,0.0)"/><text id="ProcessOnText1151" fill="#000000" font-size="13" x="0.0" y="13.325" font-family="微软雅黑" font-weight="normal" font-style="normal" text-decoration="none" family="微软雅黑" text-anchor="middle" size="13">3.1 用户请求?token</text></g></g><g id="ProcessOnG1152"><path id="ProcessOnPath1153" d="M290.0000000000005 377.9706790123456C354.3775021652198 377.9706790123456 386.53916450144783 380.923439643347 435.68059868916737 380.923439643347" stroke="#323232" stroke-width="2.0" stroke-dasharray="none" fill="none" marker-end="url(#ProcessOnMarker1154)"/><g id="ProcessOnG1156" transform="matrix(1.0,0.0,0.0,1.0,368.55382483614636,371.3220593278463)"><path id="ProcessOnPath1157" d="M0 0H75.0V16.25H0Z" fill="#fff" transform="matrix(1.0,0.0,0.0,1.0,-37.5,0.0)"/><text id="ProcessOnText1158" fill="#000000" font-size="13" x="0.0" y="13.325" font-family="微软雅黑" font-weight="normal" font-style="normal" text-decoration="none" family="微软雅黑" text-anchor="middle" size="13">2.2 用户登陆</text></g></g><g id="ProcessOnG1159"><path id="ProcessOnPath1160" d="M539.7916666666672 380.923439643347C670.0 362.0 561.2416666666674 434.548439643347 555.027734644167 434.548439643347" stroke="#323232" stroke-width="2.0" stroke-dasharray="none" fill="none" marker-end="url(#ProcessOnMarker1161)"/><g id="ProcessOnG1163" transform="matrix(1.0,0.0,0.0,1.0,598.5680501638545,392.5146497770919)"><path id="ProcessOnPath1164" d="M0 0H149.0V16.25H0Z" fill="#fff" transform="matrix(1.0,0.0,0.0,1.0,-74.5,0.0)"/><text id="ProcessOnText1165" fill="#000000" font-size="13" x="0.0" y="13.325" font-family="微软雅黑" font-weight="normal" font-style="normal" text-decoration="none" family="微软雅黑" text-anchor="middle" size="13">2.3 登记用户，获取token</text></g></g><g id="ProcessOnG1166"><path id="ProcessOnPath1167" d="M353.0 179.0L386.86111111111086 179.0L386.86111111111086 165.8138888888889L405.48615424472194 165.8138888888889" stroke="#323232" stroke-width="2.0" stroke-dasharray="none" fill="none" marker-end="url(#ProcessOnMarker1168)"/></g></g></g></svg>