<svg xmlns="http://www.w3.org/2000/svg" xmlns:xlink="http://www.w3.org/1999/xlink" id="processonSvg1000" viewBox="42.782080692677425 671.0 399.2179193073226 749.1578943012371" width="399.2179193073226" height="749.1578943012371"><defs id="ProcessOnDefs1001"><marker id="ProcessOnMarker1046" markerUnits="userSpaceOnUse" orient="auto" markerWidth="16.23606797749979" markerHeight="10.550836550532098" viewBox="-1.0 -1.3763819204711736 16.23606797749979 10.550836550532098" refX="-1.0" refY="3.8990363547948754"><path id="ProcessOnPath1047" d="M12.0 3.8990363547948754L0.0 7.798072709589751V0.0Z" stroke="#323232" stroke-width="2.0" fill="#323232" transform="matrix(1.0,0.0,0.0,1.0,0.0,0.0)"/></marker><marker id="ProcessOnMarker1050" markerUnits="userSpaceOnUse" orient="auto" markerWidth="16.23606797749979" markerHeight="10.550836550532098" viewBox="-1.0 -1.3763819204711736 16.23606797749979 10.550836550532098" refX="-1.0" refY="3.8990363547948754"><path id="ProcessOnPath1051" d="M12.0 3.8990363547948754L0.0 7.798072709589751V0.0Z" stroke="#323232" stroke-width="2.0" fill="#323232" transform="matrix(1.0,0.0,0.0,1.0,0.0,0.0)"/></marker><marker id="ProcessOnMarker1054" markerUnits="userSpaceOnUse" orient="auto" markerWidth="16.23606797749979" markerHeight="10.550836550532098" viewBox="-1.0 -1.3763819204711736 16.23606797749979 10.550836550532098" refX="-1.0" refY="3.8990363547948754"><path id="ProcessOnPath1055" d="M12.0 3.8990363547948754L0.0 7.798072709589751V0.0Z" stroke="#323232" stroke-width="2.0" fill="#323232" transform="matrix(1.0,0.0,0.0,1.0,0.0,0.0)"/></marker><marker id="ProcessOnMarker1058" markerUnits="userSpaceOnUse" orient="auto" markerWidth="16.23606797749979" markerHeight="10.550836550532098" viewBox="-1.0 -1.3763819204711736 16.23606797749979 10.550836550532098" refX="-1.0" refY="3.8990363547948754"><path id="ProcessOnPath1059" d="M12.0 3.8990363547948754L0.0 7.798072709589751V0.0Z" stroke="#323232" stroke-width="2.0" fill="#323232" transform="matrix(1.0,0.0,0.0,1.0,0.0,0.0)"/></marker><marker id="ProcessOnMarker1069" markerUnits="userSpaceOnUse" orient="auto" markerWidth="16.23606797749979" markerHeight="10.550836550532098" viewBox="-1.0 -1.3763819204711736 16.23606797749979 10.550836550532098" refX="-1.0" refY="3.8990363547948754"><path id="ProcessOnPath1070" d="M12.0 3.8990363547948754L0.0 7.798072709589751V0.0Z" stroke="#323232" stroke-width="2.0" fill="#323232" transform="matrix(1.0,0.0,0.0,1.0,0.0,0.0)"/></marker><marker id="ProcessOnMarker1099" markerUnits="userSpaceOnUse" orient="auto" markerWidth="16.23606797749979" markerHeight="10.550836550532098" viewBox="-1.0 -1.3763819204711736 16.23606797749979 10.550836550532098" refX="-1.0" refY="3.8990363547948754"><path id="ProcessOnPath1100" d="M12.0 3.8990363547948754L0.0 7.798072709589751V0.0Z" stroke="#323232" stroke-width="2.0" fill="#323232" transform="matrix(1.0,0.0,0.0,1.0,0.0,0.0)"/></marker><marker id="ProcessOnMarker1103" markerUnits="userSpaceOnUse" orient="auto" markerWidth="16.23606797749979" markerHeight="10.550836550532098" viewBox="-1.0 -1.3763819204711736 16.23606797749979 10.550836550532098" refX="-1.0" refY="3.8990363547948754"><path id="ProcessOnPath1104" d="M12.0 3.8990363547948754L0.0 7.798072709589751V0.0Z" stroke="#323232" stroke-width="2.0" fill="#323232" transform="matrix(1.0,0.0,0.0,1.0,0.0,0.0)"/></marker><marker id="ProcessOnMarker1107" markerUnits="userSpaceOnUse" orient="auto" markerWidth="16.23606797749979" markerHeight="10.550836550532098" viewBox="-1.0 -1.3763819204711736 16.23606797749979 10.550836550532098" refX="-1.0" refY="3.8990363547948754"><path id="ProcessOnPath1108" d="M12.0 3.8990363547948754L0.0 7.798072709589751V0.0Z" stroke="#323232" stroke-width="2.0" fill="#323232" transform="matrix(1.0,0.0,0.0,1.0,0.0,0.0)"/></marker><marker id="ProcessOnMarker1111" markerUnits="userSpaceOnUse" orient="auto" markerWidth="16.23606797749979" markerHeight="10.550836550532098" viewBox="-1.0 -1.3763819204711736 16.23606797749979 10.550836550532098" refX="-1.0" refY="3.8990363547948754"><path id="ProcessOnPath1112" d="M12.0 3.8990363547948754L0.0 7.798072709589751V0.0Z" stroke="#323232" stroke-width="2.0" fill="#323232" transform="matrix(1.0,0.0,0.0,1.0,0.0,0.0)"/></marker><marker id="ProcessOnMarker1115" markerUnits="userSpaceOnUse" orient="auto" markerWidth="16.23606797749979" markerHeight="10.550836550532098" viewBox="-1.0 -1.3763819204711736 16.23606797749979 10.550836550532098" refX="-1.0" refY="3.8990363547948754"><path id="ProcessOnPath1116" d="M12.0 3.8990363547948754L0.0 7.798072709589751V0.0Z" stroke="#323232" stroke-width="2.0" fill="#323232" transform="matrix(1.0,0.0,0.0,1.0,0.0,0.0)"/></marker><marker id="ProcessOnMarker1119" markerUnits="userSpaceOnUse" orient="auto" markerWidth="16.23606797749979" markerHeight="10.550836550532098" viewBox="-1.0 -1.3763819204711736 16.23606797749979 10.550836550532098" refX="-1.0" refY="3.8990363547948754"><path id="ProcessOnPath1120" d="M12.0 3.8990363547948754L0.0 7.798072709589751V0.0Z" stroke="#323232" stroke-width="2.0" fill="#323232" transform="matrix(1.0,0.0,0.0,1.0,0.0,0.0)"/></marker><marker id="ProcessOnMarker1123" markerUnits="userSpaceOnUse" orient="auto" markerWidth="16.23606797749979" markerHeight="10.550836550532098" viewBox="-1.0 -1.3763819204711736 16.23606797749979 10.550836550532098" refX="-1.0" refY="3.8990363547948754"><path id="ProcessOnPath1124" d="M12.0 3.8990363547948754L0.0 7.798072709589751V0.0Z" stroke="#323232" stroke-width="2.0" fill="#323232" transform="matrix(1.0,0.0,0.0,1.0,0.0,0.0)"/></marker><marker id="ProcessOnMarker1127" markerUnits="userSpaceOnUse" orient="auto" markerWidth="16.23606797749979" markerHeight="10.550836550532098" viewBox="-1.0 -1.3763819204711736 16.23606797749979 10.550836550532098" refX="-1.0" refY="3.8990363547948754"><path id="ProcessOnPath1128" d="M12.0 3.8990363547948754L0.0 7.798072709589751V0.0Z" stroke="#323232" stroke-width="2.0" fill="#323232" transform="matrix(1.0,0.0,0.0,1.0,0.0,0.0)"/></marker><marker id="ProcessOnMarker1131" markerUnits="userSpaceOnUse" orient="auto" markerWidth="16.23606797749979" markerHeight="10.550836550532098" viewBox="-1.0 -1.3763819204711736 16.23606797749979 10.550836550532098" refX="-1.0" refY="3.8990363547948754"><path id="ProcessOnPath1132" d="M12.0 3.8990363547948754L0.0 7.798072709589751V0.0Z" stroke="#323232" stroke-width="2.0" fill="#323232" transform="matrix(1.0,0.0,0.0,1.0,0.0,0.0)"/></marker></defs><g id="ProcessOnG1002"><path id="ProcessOnPath1003" d="M42.782080692677425 671.0H442.0V1420.157894301237H42.782080692677425V671.0Z" fill="#ffffff"/><g id="ProcessOnG1004"><g id="ProcessOnG1005" transform="matrix(1.0,0.0,0.0,1.0,62.782080692677425,1309.3881370995182)" opacity="1.0"><path id="ProcessOnPath1006" d="M0.0 10.384878600859436L359.2179193073226 10.384878600859436" stroke="#888888" stroke-width="1.0" stroke-dasharray="5.0 2.0" opacity="1.0" fill="none"/><path id="ProcessOnPath1007" d="M0.0 0.0L359.2179193073226 0.0L359.2179193073226 20.76975720171887L0.0 20.76975720171887Z" stroke="none" stroke-width="0.0" stroke-dasharray="0.0 0.0" opacity="1.0" fill="none"/></g><g id="ProcessOnG1008" transform="matrix(1.0,0.0,0.0,1.0,74.81612722414985,1330.157894301237)" opacity="1.0"><path id="ProcessOnPath1009" d="M0.0 35.0C0.0 -11.666666666666666 70.0 -11.666666666666666 70.0 35.0C70.0 81.66666666666667 0.0 81.66666666666667 0.0 35.0Z" stroke="#323232" stroke-width="2.0" stroke-dasharray="none" opacity="1.0" fill="#ffffff"/><g id="ProcessOnG1010" transform="matrix(1.0,0.0,0.0,1.0,10.0,26.875)"><text id="ProcessOnText1011" fill="#000000" font-size="13" x="24.0" y="13.325" font-family="微软雅黑" font-weight="normal" font-style="normal" text-decoration="none" family="微软雅黑" text-anchor="middle" size="13">module</text></g></g><g id="ProcessOnG1012" transform="matrix(1.0,0.0,0.0,1.0,160.8161272241499,1330.157894301237)" opacity="1.0"><path id="ProcessOnPath1013" d="M0.0 35.0C0.0 -11.666666666666666 70.0 -11.666666666666666 70.0 35.0C70.0 81.66666666666667 0.0 81.66666666666667 0.0 35.0Z" stroke="#323232" stroke-width="2.0" stroke-dasharray="none" opacity="1.0" fill="#ffffff"/><g id="ProcessOnG1014" transform="matrix(1.0,0.0,0.0,1.0,10.0,26.875)"><text id="ProcessOnText1015" fill="#000000" font-size="13" x="24.0" y="13.325" font-family="微软雅黑" font-weight="normal" font-style="normal" text-decoration="none" family="微软雅黑" text-anchor="middle" size="13">event</text></g></g><g id="ProcessOnG1016" transform="matrix(1.0,0.0,0.0,1.0,247.13839673914856,1330.157894301237)" opacity="1.0"><path id="ProcessOnPath1017" d="M0.0 35.0C0.0 -11.666666666666666 70.0 -11.666666666666666 70.0 35.0C70.0 81.66666666666667 0.0 81.66666666666667 0.0 35.0Z" stroke="#323232" stroke-width="2.0" stroke-dasharray="none" opacity="1.0" fill="#ffffff"/><g id="ProcessOnG1018" transform="matrix(1.0,0.0,0.0,1.0,10.0,26.875)"><text id="ProcessOnText1019" fill="#000000" font-size="13" x="24.0" y="13.325" font-family="微软雅黑" font-weight="normal" font-style="normal" text-decoration="none" family="微软雅黑" text-anchor="middle" size="13">logger</text></g></g><g id="ProcessOnG1020" transform="matrix(1.0,0.0,0.0,1.0,340.87610214515337,1330.157894301237)" opacity="1.0"><path id="ProcessOnPath1021" d="M0.0 35.0C0.0 -11.666666666666666 70.0 -11.666666666666666 70.0 35.0C70.0 81.66666666666667 0.0 81.66666666666667 0.0 35.0Z" stroke="#323232" stroke-width="2.0" stroke-dasharray="none" opacity="1.0" fill="#ffffff"/><g id="ProcessOnG1022" transform="matrix(1.0,0.0,0.0,1.0,10.0,26.875)"><text id="ProcessOnText1023" fill="#000000" font-size="13" x="24.0" y="13.325" font-family="微软雅黑" font-weight="normal" font-style="normal" text-decoration="none" family="微软雅黑" text-anchor="middle" size="13">err</text></g></g><g id="ProcessOnG1024" transform="matrix(1.0,0.0,0.0,1.0,81.66666666666674,1225.0)" opacity="1.0"><path id="ProcessOnPath1025" d="M0.0 35.0C0.0 -11.666666666666666 70.0 -11.666666666666666 70.0 35.0C70.0 81.66666666666667 0.0 81.66666666666667 0.0 35.0Z" stroke="#323232" stroke-width="2.0" stroke-dasharray="none" opacity="1.0" fill="#ffffff"/><g id="ProcessOnG1026" transform="matrix(1.0,0.0,0.0,1.0,10.0,26.875)"><text id="ProcessOnText1027" fill="#000000" font-size="13" x="24.0" y="13.325" font-family="微软雅黑" font-weight="normal" font-style="normal" text-decoration="none" family="微软雅黑" text-anchor="middle" size="13">ms-ws</text></g></g><g id="ProcessOnG1028" transform="matrix(1.0,0.0,0.0,1.0,175.0,1227.3059695972136)" opacity="1.0"><path id="ProcessOnPath1029" d="M0.0 35.0C0.0 -11.666666666666666 72.13839673914856 -11.666666666666666 72.13839673914856 35.0C72.13839673914856 81.66666666666667 0.0 81.66666666666667 0.0 35.0Z" stroke="#323232" stroke-width="2.0" stroke-dasharray="none" opacity="1.0" fill="#ffffff"/><g id="ProcessOnG1030" transform="matrix(1.0,0.0,0.0,1.0,10.0,26.875)"><text id="ProcessOnText1031" fill="#000000" font-size="13" x="25.06919836957428" y="13.325" font-family="微软雅黑" font-weight="normal" font-style="normal" text-decoration="none" family="微软雅黑" text-anchor="middle" size="13">ms-http</text></g></g><g id="ProcessOnG1032" transform="matrix(1.0,0.0,0.0,1.0,307.57909808082195,1227.3059695972136)" opacity="1.0"><path id="ProcessOnPath1033" d="M0.0 35.0C0.0 -11.666666666666666 70.0 -11.666666666666666 70.0 35.0C70.0 81.66666666666667 0.0 81.66666666666667 0.0 35.0Z" stroke="#323232" stroke-width="2.0" stroke-dasharray="none" opacity="1.0" fill="#ffffff"/><g id="ProcessOnG1034" transform="matrix(1.0,0.0,0.0,1.0,10.0,26.875)"><text id="ProcessOnText1035" fill="#000000" font-size="13" x="24.0" y="13.325" font-family="微软雅黑" font-weight="normal" font-style="normal" text-decoration="none" family="微软雅黑" text-anchor="middle" size="13">ajax</text></g></g><g id="ProcessOnG1036" transform="matrix(1.0,0.0,0.0,1.0,138.76808538372575,1104.9177943507227)" opacity="1.0"><path id="ProcessOnPath1037" d="M0.0 35.0C0.0 -11.666666666666666 70.0 -11.666666666666666 70.0 35.0C70.0 81.66666666666667 0.0 81.66666666666667 0.0 35.0Z" stroke="#323232" stroke-width="2.0" stroke-dasharray="none" opacity="1.0" fill="#ffffff"/><g id="ProcessOnG1038" transform="matrix(1.0,0.0,0.0,1.0,10.0,26.875)"><text id="ProcessOnText1039" fill="#000000" font-size="13" x="24.0" y="13.325" font-family="微软雅黑" font-weight="normal" font-style="normal" text-decoration="none" family="微软雅黑" text-anchor="middle" size="13">ms</text></g></g><g id="ProcessOnG1040" transform="matrix(1.0,0.0,0.0,1.0,273.0,1104.9177943507227)" opacity="1.0"><path id="ProcessOnPath1041" d="M0.0 38.54110282463864C0.0 -12.847034274879547 76.0 -12.847034274879547 76.0 38.54110282463864C76.0 89.92923992415683 0.0 89.92923992415683 0.0 38.54110282463864Z" stroke="#323232" stroke-width="2.0" stroke-dasharray="none" opacity="1.0" fill="#ffffff"/><g id="ProcessOnG1042" transform="matrix(1.0,0.0,0.0,1.0,10.0,30.416102824638642)"><text id="ProcessOnText1043" fill="#000000" font-size="13" x="27.0" y="13.325" font-family="微软雅黑" font-weight="normal" font-style="normal" text-decoration="none" family="微软雅黑" text-anchor="middle" size="13">ms-core</text></g></g><g id="ProcessOnG1044"><path id="ProcessOnPath1045" d="M247.13839673914856 1262.3059695972136C271.3146772758179 1262.3059695972136 283.4028175441526 1262.3059695972136 292.3430301033222 1262.3059695972136" stroke="#323232" stroke-width="2.0" stroke-dasharray="none" fill="none" marker-end="url(#ProcessOnMarker1046)"/></g><g id="ProcessOnG1048"><path id="ProcessOnPath1049" d="M173.76808538372575 1174.9177943507227C173.76808538372575 1200.6421608094406 211.06919836957428 1201.5816031384957 211.06919836957428 1212.0699016197138" stroke="#323232" stroke-width="2.0" stroke-dasharray="none" fill="none" marker-end="url(#ProcessOnMarker1050)"/></g><g id="ProcessOnG1052"><path id="ProcessOnPath1053" d="M173.76808538372575 1174.9177943507227C173.76808538372575 1205.2988393418284 116.66666666666674 1194.6189550088943 116.66666666666674 1209.7639320225003" stroke="#323232" stroke-width="2.0" stroke-dasharray="none" fill="none" marker-end="url(#ProcessOnMarker1054)"/></g><g id="ProcessOnG1056"><path id="ProcessOnPath1057" d="M208.76808538372575 1139.9177943507227C234.49986577914189 1139.9177943507227 247.26821960458386 1143.4588971753615 257.7639320225002 1143.4588971753615" stroke="#323232" stroke-width="2.0" stroke-dasharray="none" fill="none" marker-end="url(#ProcessOnMarker1058)"/></g><g id="ProcessOnG1060" transform="matrix(1.0,0.0,0.0,1.0,203.0,962.9078943012371)" opacity="1.0"><path id="ProcessOnPath1061" d="M0.0 35.0C0.0 -11.666666666666666 70.0 -11.666666666666666 70.0 35.0C70.0 81.66666666666667 0.0 81.66666666666667 0.0 35.0Z" stroke="#323232" stroke-width="2.0" stroke-dasharray="none" opacity="1.0" fill="#ffffff"/><g id="ProcessOnG1062" transform="matrix(1.0,0.0,0.0,1.0,10.0,26.875)"><text id="ProcessOnText1063" fill="#000000" font-size="13" x="24.0" y="13.325" font-family="微软雅黑" font-weight="normal" font-style="normal" text-decoration="none" family="微软雅黑" text-anchor="middle" size="13">server</text></g></g><g id="ProcessOnG1064" transform="matrix(1.0,0.0,0.0,1.0,62.782080692677425,1053.0965510518392)" opacity="1.0"><path id="ProcessOnPath1065" d="M0.0 10.384878600859436L359.2179193073226 10.384878600859436" stroke="#888888" stroke-width="1.0" stroke-dasharray="5.0 2.0" opacity="1.0" fill="none"/><path id="ProcessOnPath1066" d="M0.0 0.0L359.2179193073226 0.0L359.2179193073226 20.76975720171887L0.0 20.76975720171887Z" stroke="none" stroke-width="0.0" stroke-dasharray="0.0 0.0" opacity="1.0" fill="none"/></g><g id="ProcessOnG1067"><path id="ProcessOnPath1068" d="M238.0 1032.907894301237C238.0 1071.5056446199471 173.76808538372575 1066.3200440320127 173.76808538372575 1089.681726373223" stroke="#323232" stroke-width="2.0" stroke-dasharray="none" fill="none" marker-end="url(#ProcessOnMarker1069)"/></g><g id="ProcessOnG1071" transform="matrix(1.0,0.0,0.0,1.0,113.0,839.9517244740804)" opacity="1.0"><path id="ProcessOnPath1072" d="M0.0 35.0C0.0 -11.666666666666666 70.0 -11.666666666666666 70.0 35.0C70.0 81.66666666666667 0.0 81.66666666666667 0.0 35.0Z" stroke="#323232" stroke-width="2.0" stroke-dasharray="none" opacity="1.0" fill="#ffffff"/><g id="ProcessOnG1073" transform="matrix(1.0,0.0,0.0,1.0,10.0,26.875)"><text id="ProcessOnText1074" fill="#000000" font-size="13" x="24.0" y="13.325" font-family="微软雅黑" font-weight="normal" font-style="normal" text-decoration="none" family="微软雅黑" text-anchor="middle" size="13">config</text></g></g><g id="ProcessOnG1075" transform="matrix(1.0,0.0,0.0,1.0,190.8161272241499,839.0822056492773)" opacity="1.0"><path id="ProcessOnPath1076" d="M0.0 37.04827552591962C0.0 -12.349425175306541 75.0 -12.349425175306541 75.0 37.04827552591962C75.0 86.44597622714578 0.0 86.44597622714578 0.0 37.04827552591962Z" stroke="#323232" stroke-width="2.0" stroke-dasharray="none" opacity="1.0" fill="#ffffff"/><g id="ProcessOnG1077" transform="matrix(1.0,0.0,0.0,1.0,10.0,28.92327552591962)"><text id="ProcessOnText1078" fill="#000000" font-size="13" x="26.5" y="13.325" font-family="微软雅黑" font-weight="normal" font-style="normal" text-decoration="none" family="微软雅黑" text-anchor="middle" size="13">passport</text></g></g><g id="ProcessOnG1079" transform="matrix(1.0,0.0,0.0,1.0,273.0,842.0)" opacity="1.0"><path id="ProcessOnPath1080" d="M0.0 35.0C0.0 -11.666666666666666 70.0 -11.666666666666666 70.0 35.0C70.0 81.66666666666667 0.0 81.66666666666667 0.0 35.0Z" stroke="#323232" stroke-width="2.0" stroke-dasharray="none" opacity="1.0" fill="#ffffff"/><g id="ProcessOnG1081" transform="matrix(1.0,0.0,0.0,1.0,10.0,26.875)"><text id="ProcessOnText1082" fill="#000000" font-size="13" x="24.0" y="13.325" font-family="微软雅黑" font-weight="normal" font-style="normal" text-decoration="none" family="微软雅黑" text-anchor="middle" size="13">sso</text></g></g><g id="ProcessOnG1083" transform="matrix(1.0,0.0,0.0,1.0,68.13839673914856,691.0)" opacity="1.0"><path id="ProcessOnPath1084" d="M0.0 36.0C0.0 -12.0 74.0 -12.0 74.0 36.0C74.0 84.0 0.0 84.0 0.0 36.0Z" stroke="#323232" stroke-width="2.0" stroke-dasharray="none" opacity="1.0" fill="#ffffff"/><g id="ProcessOnG1085" transform="matrix(1.0,0.0,0.0,1.0,10.0,27.875)"><text id="ProcessOnText1086" fill="#000000" font-size="13" x="26.0" y="13.325" font-family="微软雅黑" font-weight="normal" font-style="normal" text-decoration="none" family="微软雅黑" text-anchor="middle" size="13">gateway</text></g></g><g id="ProcessOnG1087" transform="matrix(1.0,0.0,0.0,1.0,353.0,839.0822056492773)" opacity="1.0"><path id="ProcessOnPath1088" d="M0.0 33.45889717536136C0.0 -11.152965725120453 69.0 -11.152965725120453 69.0 33.45889717536136C69.0 78.07076007584317 0.0 78.07076007584317 0.0 33.45889717536136Z" stroke="#323232" stroke-width="2.0" stroke-dasharray="none" opacity="1.0" fill="#ffffff"/><g id="ProcessOnG1089" transform="matrix(1.0,0.0,0.0,1.0,10.0,25.333897175361358)"><text id="ProcessOnText1090" fill="#000000" font-size="13" x="23.5" y="13.325" font-family="微软雅黑" font-weight="normal" font-style="normal" text-decoration="none" family="微软雅黑" text-anchor="middle" size="13">acl</text></g></g><g id="ProcessOnG1091" transform="matrix(1.0,0.0,0.0,1.0,62.782080692677425,930.0965510518392)" opacity="1.0"><path id="ProcessOnPath1092" d="M0.0 10.384878600859436L359.2179193073226 10.384878600859436" stroke="#888888" stroke-width="1.0" stroke-dasharray="5.0 2.0" opacity="1.0" fill="none"/><path id="ProcessOnPath1093" d="M0.0 0.0L359.2179193073226 0.0L359.2179193073226 20.76975720171887L0.0 20.76975720171887Z" stroke="none" stroke-width="0.0" stroke-dasharray="0.0 0.0" opacity="1.0" fill="none"/></g><g id="ProcessOnG1094" transform="matrix(1.0,0.0,0.0,1.0,62.782080692677425,789.0965510518392)" opacity="1.0"><path id="ProcessOnPath1095" d="M0.0 10.384878600859436L359.2179193073226 10.384878600859436" stroke="#888888" stroke-width="1.0" stroke-dasharray="5.0 2.0" opacity="1.0" fill="none"/><path id="ProcessOnPath1096" d="M0.0 0.0L359.2179193073226 0.0L359.2179193073226 20.76975720171887L0.0 20.76975720171887Z" stroke="none" stroke-width="0.0" stroke-dasharray="0.0 0.0" opacity="1.0" fill="none"/></g><g id="ProcessOnG1097"><path id="ProcessOnPath1098" d="M105.13839673914856 763.0C105.13839673914858 864.7908539685766 101.20914603142346 997.9078943012371 187.7639320225002 997.9078943012371" stroke="#323232" stroke-width="2.0" stroke-dasharray="none" fill="none" marker-end="url(#ProcessOnMarker1099)"/></g><g id="ProcessOnG1101"><path id="ProcessOnPath1102" d="M142.13839673914856 727.0C187.3798829295136 727.0 148.0 794.7102382837153 148.0 824.7156564965806" stroke="#323232" stroke-width="2.0" stroke-dasharray="none" fill="none" marker-end="url(#ProcessOnMarker1103)"/></g><g id="ProcessOnG1105"><path id="ProcessOnPath1106" d="M142.13839673914856 727.0C198.69141194400203 727.0 228.3161272241499 782.5291904444239 228.3161272241499 823.8461376717775" stroke="#323232" stroke-width="2.0" stroke-dasharray="none" fill="none" marker-end="url(#ProcessOnMarker1107)"/></g><g id="ProcessOnG1109"><path id="ProcessOnPath1110" d="M142.13839673914856 727.0C222.87012179071434 727.0 308.0 761.2682749484343 308.0 826.7639320225002" stroke="#323232" stroke-width="2.0" stroke-dasharray="none" fill="none" marker-end="url(#ProcessOnMarker1111)"/></g><g id="ProcessOnG1113"><path id="ProcessOnPath1114" d="M142.13839673914856 727.0C250.03815553624122 727.0 387.5 731.1824468521846 387.5 823.8461376717775" stroke="#323232" stroke-width="2.0" stroke-dasharray="none" fill="none" marker-end="url(#ProcessOnMarker1115)"/></g><g id="ProcessOnG1117"><path id="ProcessOnPath1118" d="M148.0 909.9517244740804C148.0 946.356118894646 183.17679372149007 952.1708567670647 199.3926725633292 965.7775947224674" stroke="#323232" stroke-width="2.0" stroke-dasharray="none" fill="none" marker-end="url(#ProcessOnMarker1119)"/></g><g id="ProcessOnG1121"><path id="ProcessOnPath1122" d="M228.3161272241499 913.1787567011165C228.3161272241499 933.4440551924414 238.0 942.6425958099122 238.0 947.6718263237373" stroke="#323232" stroke-width="2.0" stroke-dasharray="none" fill="none" marker-end="url(#ProcessOnMarker1123)"/></g><g id="ProcessOnG1125"><path id="ProcessOnPath1126" d="M308.0 912.0C308.0 942.4639912794072 283.71286769093047 951.2871323090695 272.9450998607631 962.0549001392369" stroke="#323232" stroke-width="2.0" stroke-dasharray="none" fill="none" marker-end="url(#ProcessOnMarker1127)"/></g><g id="ProcessOnG1129"><path id="ProcessOnPath1130" d="M387.5 906.0C387.5 963.2704322890324 328.461134724551 980.7496865094798 287.065366857614 988.0488772715654" stroke="#323232" stroke-width="2.0" stroke-dasharray="none" fill="none" marker-end="url(#ProcessOnMarker1131)"/></g></g></g></svg>