<svg xmlns="http://www.w3.org/2000/svg" xmlns:xlink="http://www.w3.org/1999/xlink" id="processonSvg1000" viewBox="40.0 899.0 461.0 571.3881370995182" width="461.0" height="571.3881370995182"><defs id="ProcessOnDefs1001"><marker id="ProcessOnMarker1034" markerUnits="userSpaceOnUse" orient="auto" markerWidth="16.23606797749979" markerHeight="10.550836550532098" viewBox="-1.0 -1.3763819204711736 16.23606797749979 10.550836550532098" refX="-1.0" refY="3.8990363547948754"><path id="ProcessOnPath1035" d="M12.0 3.8990363547948754L0.0 7.798072709589751V0.0Z" stroke="#323232" stroke-width="2.0" fill="#323232" transform="matrix(1.0,0.0,0.0,1.0,0.0,0.0)"/></marker><marker id="ProcessOnMarker1059" markerUnits="userSpaceOnUse" orient="auto" markerWidth="16.23606797749979" markerHeight="10.550836550532098" viewBox="-1.0 -1.3763819204711736 16.23606797749979 10.550836550532098" refX="-1.0" refY="3.8990363547948754"><path id="ProcessOnPath1060" d="M12.0 3.8990363547948754L0.0 7.798072709589751V0.0Z" stroke="#323232" stroke-width="2.0" fill="#323232" transform="matrix(1.0,0.0,0.0,1.0,0.0,0.0)"/></marker><marker id="ProcessOnMarker1063" markerUnits="userSpaceOnUse" orient="auto" markerWidth="16.23606797749979" markerHeight="10.550836550532098" viewBox="-1.0 -1.3763819204711736 16.23606797749979 10.550836550532098" refX="-1.0" refY="3.8990363547948754"><path id="ProcessOnPath1064" d="M12.0 3.8990363547948754L0.0 7.798072709589751V0.0Z" stroke="#323232" stroke-width="2.0" fill="#323232" transform="matrix(1.0,0.0,0.0,1.0,0.0,0.0)"/></marker><marker id="ProcessOnMarker1067" markerUnits="userSpaceOnUse" orient="auto" markerWidth="16.23606797749979" markerHeight="10.550836550532098" viewBox="-1.0 -1.3763819204711736 16.23606797749979 10.550836550532098" refX="-1.0" refY="3.8990363547948754"><path id="ProcessOnPath1068" d="M12.0 3.8990363547948754L0.0 7.798072709589751V0.0Z" stroke="#323232" stroke-width="2.0" fill="#323232" transform="matrix(1.0,0.0,0.0,1.0,0.0,0.0)"/></marker><marker id="ProcessOnMarker1071" markerUnits="userSpaceOnUse" orient="auto" markerWidth="16.23606797749979" markerHeight="10.550836550532098" viewBox="-1.0 -1.3763819204711736 16.23606797749979 10.550836550532098" refX="-1.0" refY="3.8990363547948754"><path id="ProcessOnPath1072" d="M12.0 3.8990363547948754L0.0 7.798072709589751V0.0Z" stroke="#323232" stroke-width="2.0" fill="#323232" transform="matrix(1.0,0.0,0.0,1.0,0.0,0.0)"/></marker><marker id="ProcessOnMarker1075" markerUnits="userSpaceOnUse" orient="auto" markerWidth="16.23606797749979" markerHeight="10.550836550532098" viewBox="-1.0 -1.3763819204711736 16.23606797749979 10.550836550532098" refX="-1.0" refY="3.8990363547948754"><path id="ProcessOnPath1076" d="M12.0 3.8990363547948754L0.0 7.798072709589751V0.0Z" stroke="#323232" stroke-width="2.0" fill="#323232" transform="matrix(1.0,0.0,0.0,1.0,0.0,0.0)"/></marker><marker id="ProcessOnMarker1079" markerUnits="userSpaceOnUse" orient="auto" markerWidth="16.23606797749979" markerHeight="10.550836550532098" viewBox="-1.0 -1.3763819204711736 16.23606797749979 10.550836550532098" refX="-1.0" refY="3.8990363547948754"><path id="ProcessOnPath1080" d="M12.0 3.8990363547948754L0.0 7.798072709589751V0.0Z" stroke="#323232" stroke-width="2.0" fill="#323232" transform="matrix(1.0,0.0,0.0,1.0,0.0,0.0)"/></marker><marker id="ProcessOnMarker1083" markerUnits="userSpaceOnUse" orient="auto" markerWidth="16.23606797749979" markerHeight="10.550836550532098" viewBox="-1.0 -1.3763819204711736 16.23606797749979 10.550836550532098" refX="-1.0" refY="3.8990363547948754"><path id="ProcessOnPath1084" d="M12.0 3.8990363547948754L0.0 7.798072709589751V0.0Z" stroke="#323232" stroke-width="2.0" fill="#323232" transform="matrix(1.0,0.0,0.0,1.0,0.0,0.0)"/></marker><marker id="ProcessOnMarker1087" markerUnits="userSpaceOnUse" orient="auto" markerWidth="16.23606797749979" markerHeight="10.550836550532098" viewBox="-1.0 -1.3763819204711736 16.23606797749979 10.550836550532098" refX="-1.0" refY="3.8990363547948754"><path id="ProcessOnPath1088" d="M12.0 3.8990363547948754L0.0 7.798072709589751V0.0Z" stroke="#323232" stroke-width="2.0" fill="#323232" transform="matrix(1.0,0.0,0.0,1.0,0.0,0.0)"/></marker></defs><g id="ProcessOnG1002"><path id="ProcessOnPath1003" d="M40.0 899.0H501.0V1470.3881370995182H40.0V899.0Z" fill="#ffffff"/><g id="ProcessOnG1004"><g id="ProcessOnG1005" transform="matrix(1.0,0.0,0.0,1.0,60.0,1326.3881370995182)" opacity="1.0"><path id="ProcessOnPath1006" d="M0.0 0.0L421.0 0.0L421.0 116.0L0.0 116.0Z" stroke="#323232" stroke-width="2.0" stroke-dasharray="none" opacity="1.0" fill="none"/><path id="ProcessOnPath1007" d="M0.0 0.0L40.0 0.0L40.0 116.0L0.0 116.0Z" stroke="#323232" stroke-width="2.0" stroke-dasharray="none" opacity="1.0" fill="#ffffff"/><g id="ProcessOnG1008" transform="matrix(0.0,-1.0,1.0,0.0,10.0,104.0)"><text id="ProcessOnText1009" fill="#000000" font-size="16" x="47.0" y="16.4" font-family="微软雅黑" font-weight="normal" font-style="normal" text-decoration="none" family="微软雅黑" text-anchor="middle" size="16">jm-ms</text></g></g><g id="ProcessOnG1010" transform="matrix(1.0,0.0,0.0,1.0,390.66666666666674,1071.8663082535581)" opacity="1.0"><path id="ProcessOnPath1011" d="M0.0 35.0C0.0 -11.666666666666666 70.0 -11.666666666666666 70.0 35.0C70.0 81.66666666666667 0.0 81.66666666666667 0.0 35.0Z" stroke="#323232" stroke-width="2.0" stroke-dasharray="none" opacity="1.0" fill="#ffffff"/><g id="ProcessOnG1012" transform="matrix(1.0,0.0,0.0,1.0,10.0,18.75)"><text id="ProcessOnText1013" fill="#000000" font-size="13" x="24.0" y="13.325" font-family="微软雅黑" font-weight="normal" font-style="normal" text-decoration="none" family="微软雅黑" text-anchor="middle" size="13">server-</text><text id="ProcessOnText1014" fill="#000000" font-size="13" x="24.0" y="29.575" font-family="微软雅黑" font-weight="normal" font-style="normal" text-decoration="none" family="微软雅黑" text-anchor="middle" size="13">sso</text></g></g><g id="ProcessOnG1015" transform="matrix(1.0,0.0,0.0,1.0,383.66666666666674,1239.3881370995182)" opacity="1.0"><path id="ProcessOnPath1016" d="M0.0 35.0C0.0 -11.666666666666666 70.0 -11.666666666666666 70.0 35.0C70.0 81.66666666666667 0.0 81.66666666666667 0.0 35.0Z" stroke="#323232" stroke-width="2.0" stroke-dasharray="none" opacity="1.0" fill="#ffffff"/><g id="ProcessOnG1017" transform="matrix(1.0,0.0,0.0,1.0,10.0,26.875)"><text id="ProcessOnText1018" fill="#000000" font-size="13" x="24.0" y="13.325" font-family="微软雅黑" font-weight="normal" font-style="normal" text-decoration="none" family="微软雅黑" text-anchor="middle" size="13">logger</text></g></g><g id="ProcessOnG1019" transform="matrix(1.0,0.0,0.0,1.0,122.66666666666674,1117.907894301237)" opacity="1.0"><path id="ProcessOnPath1020" d="M0.0 35.0C0.0 -11.666666666666666 70.0 -11.666666666666666 70.0 35.0C70.0 81.66666666666667 0.0 81.66666666666667 0.0 35.0Z" stroke="#323232" stroke-width="2.0" stroke-dasharray="none" opacity="1.0" fill="#ffffff"/><g id="ProcessOnG1021" transform="matrix(1.0,0.0,0.0,1.0,10.0,18.75)"><text id="ProcessOnText1022" fill="#000000" font-size="13" x="24.0" y="13.325" font-family="微软雅黑" font-weight="normal" font-style="normal" text-decoration="none" family="微软雅黑" text-anchor="middle" size="13">server-</text><text id="ProcessOnText1023" fill="#000000" font-size="13" x="24.0" y="29.575" font-family="微软雅黑" font-weight="normal" font-style="normal" text-decoration="none" family="微软雅黑" text-anchor="middle" size="13">config</text></g></g><g id="ProcessOnG1024" transform="matrix(1.0,0.0,0.0,1.0,250.0,1354.3059695972136)" opacity="1.0"><path id="ProcessOnPath1025" d="M0.0 35.0C0.0 -11.666666666666666 70.0 -11.666666666666666 70.0 35.0C70.0 81.66666666666667 0.0 81.66666666666667 0.0 35.0Z" stroke="#323232" stroke-width="2.0" stroke-dasharray="none" opacity="1.0" fill="#ffffff"/><g id="ProcessOnG1026" transform="matrix(1.0,0.0,0.0,1.0,10.0,26.875)"><text id="ProcessOnText1027" fill="#000000" font-size="13" x="24.0" y="13.325" font-family="微软雅黑" font-weight="normal" font-style="normal" text-decoration="none" family="微软雅黑" text-anchor="middle" size="13">ms</text></g></g><g id="ProcessOnG1028" transform="matrix(1.0,0.0,0.0,1.0,250.0,1218.8256886519598)" opacity="1.0"><path id="ProcessOnPath1029" d="M0.0 35.0C0.0 -11.666666666666666 70.0 -11.666666666666666 70.0 35.0C70.0 81.66666666666667 0.0 81.66666666666667 0.0 35.0Z" stroke="#323232" stroke-width="2.0" stroke-dasharray="none" opacity="1.0" fill="#ffffff"/><g id="ProcessOnG1030" transform="matrix(1.0,0.0,0.0,1.0,10.0,26.875)"><text id="ProcessOnText1031" fill="#000000" font-size="13" x="24.0" y="13.325" font-family="微软雅黑" font-weight="normal" font-style="normal" text-decoration="none" family="微软雅黑" text-anchor="middle" size="13">server</text></g></g><g id="ProcessOnG1032"><path id="ProcessOnPath1033" d="M285.0 1288.8256886519598C285.0 1315.0178010300613 285.0 1328.113857219112 285.0 1339.0699016197138" stroke="#323232" stroke-width="2.0" stroke-dasharray="none" fill="none" marker-end="url(#ProcessOnMarker1034)"/></g><g id="ProcessOnG1036" transform="matrix(1.0,0.0,0.0,1.0,122.66666666666674,1229.3881370995182)" opacity="1.0"><path id="ProcessOnPath1037" d="M0.0 35.0C0.0 -11.666666666666666 70.0 -11.666666666666666 70.0 35.0C70.0 81.66666666666667 0.0 81.66666666666667 0.0 35.0Z" stroke="#323232" stroke-width="2.0" stroke-dasharray="none" opacity="1.0" fill="#ffffff"/><g id="ProcessOnG1038" transform="matrix(1.0,0.0,0.0,1.0,10.0,26.875)"><text id="ProcessOnText1039" fill="#000000" font-size="13" x="24.0" y="13.325" font-family="微软雅黑" font-weight="normal" font-style="normal" text-decoration="none" family="微软雅黑" text-anchor="middle" size="13">config</text></g></g><g id="ProcessOnG1040" transform="matrix(1.0,0.0,0.0,1.0,202.66666666666674,954.9517244740804)" opacity="1.0"><path id="ProcessOnPath1041" d="M0.0 37.04827552591962C0.0 -12.349425175306541 75.0 -12.349425175306541 75.0 37.04827552591962C75.0 86.44597622714578 0.0 86.44597622714578 0.0 37.04827552591962Z" stroke="#323232" stroke-width="2.0" stroke-dasharray="none" opacity="1.0" fill="#ffffff"/><g id="ProcessOnG1042" transform="matrix(1.0,0.0,0.0,1.0,10.0,28.92327552591962)"><text id="ProcessOnText1043" fill="#000000" font-size="13" x="26.5" y="13.325" font-family="微软雅黑" font-weight="normal" font-style="normal" text-decoration="none" family="微软雅黑" text-anchor="middle" size="13">服务</text></g></g><g id="ProcessOnG1044" transform="matrix(1.0,0.0,0.0,1.0,247.0,1102.8470724218523)" opacity="1.0"><path id="ProcessOnPath1045" d="M0.0 35.0C0.0 -11.666666666666666 70.0 -11.666666666666666 70.0 35.0C70.0 81.66666666666667 0.0 81.66666666666667 0.0 35.0Z" stroke="#323232" stroke-width="2.0" stroke-dasharray="none" opacity="1.0" fill="#ffffff"/><g id="ProcessOnG1046" transform="matrix(1.0,0.0,0.0,1.0,10.0,26.875)"><text id="ProcessOnText1047" fill="#000000" font-size="13" x="24.0" y="13.325" font-family="微软雅黑" font-weight="normal" font-style="normal" text-decoration="none" family="微软雅黑" text-anchor="middle" size="13">module</text></g></g><g id="ProcessOnG1048" transform="matrix(1.0,0.0,0.0,1.0,361.0,937.0)" opacity="1.0"><path id="ProcessOnPath1049" d="M0.0 36.0C0.0 -12.0 74.0 -12.0 74.0 36.0C74.0 84.0 0.0 84.0 0.0 36.0Z" stroke="#323232" stroke-width="2.0" stroke-dasharray="none" opacity="1.0" fill="#ffffff"/><g id="ProcessOnG1050" transform="matrix(1.0,0.0,0.0,1.0,10.0,27.875)"><text id="ProcessOnText1051" fill="#000000" font-size="13" x="26.0" y="13.325" font-family="微软雅黑" font-weight="normal" font-style="normal" text-decoration="none" family="微软雅黑" text-anchor="middle" size="13">路由</text></g></g><g id="ProcessOnG1052" transform="matrix(1.0,0.0,0.0,1.0,391.16666666666674,1151.907894301237)" opacity="1.0"><path id="ProcessOnPath1053" d="M0.0 33.45889717536136C0.0 -11.152965725120453 69.0 -11.152965725120453 69.0 33.45889717536136C69.0 78.07076007584317 0.0 78.07076007584317 0.0 33.45889717536136Z" stroke="#323232" stroke-width="2.0" stroke-dasharray="none" opacity="1.0" fill="#ffffff"/><g id="ProcessOnG1054" transform="matrix(1.0,0.0,0.0,1.0,10.0,17.208897175361358)"><text id="ProcessOnText1055" fill="#000000" font-size="13" x="23.5" y="13.325" font-family="微软雅黑" font-weight="normal" font-style="normal" text-decoration="none" family="微软雅黑" text-anchor="middle" size="13">server-</text><text id="ProcessOnText1056" fill="#000000" font-size="13" x="23.5" y="29.575" font-family="微软雅黑" font-weight="normal" font-style="normal" text-decoration="none" family="微软雅黑" text-anchor="middle" size="13">acl</text></g></g><g id="ProcessOnG1057"><path id="ProcessOnPath1058" d="M250.0 1253.8256886519598C226.6807326759405 1253.8256886519598 215.98593399072624 1264.3881370995182 207.90273464416654 1264.3881370995182" stroke="#323232" stroke-width="2.0" stroke-dasharray="none" fill="none" marker-end="url(#ProcessOnMarker1059)"/></g><g id="ProcessOnG1061"><path id="ProcessOnPath1062" d="M319.0607689879512 1261.223201640055C345.03353099457473 1265.8029003453426 357.2932329409662 1274.3881370995182 368.43059868916697 1274.3881370995182" stroke="#323232" stroke-width="2.0" stroke-dasharray="none" fill="none" marker-end="url(#ProcessOnMarker1063)"/></g><g id="ProcessOnG1065"><path id="ProcessOnPath1066" d="M282.0 1102.8470724218523C282.0 1068.914692131481 240.16666666666674 1062.980655816291 240.16666666666674 1044.2843435034192" stroke="#323232" stroke-width="2.0" stroke-dasharray="none" fill="none" marker-end="url(#ProcessOnMarker1067)"/></g><g id="ProcessOnG1069"><path id="ProcessOnPath1070" d="M276.06814834742187 982.3871569150082C309.0831215033643 973.5408215197382 326.82038469477453 973.0 345.7639320225002 973.0" stroke="#323232" stroke-width="2.0" stroke-dasharray="none" fill="none" marker-end="url(#ProcessOnMarker1071)"/></g><g id="ProcessOnG1073"><path id="ProcessOnPath1074" d="M285.0 1218.8256886519598C285.0 1200.3951351043943 282.0 1191.2776259694178 282.0 1188.083140399352" stroke="#323232" stroke-width="2.0" stroke-dasharray="none" fill="none" marker-end="url(#ProcessOnMarker1075)"/></g><g id="ProcessOnG1077"><path id="ProcessOnPath1078" d="M247.0 1137.8470724218523C224.44716614952824 1137.8470724218523 215.2195005171385 1152.907894301237 207.90273464416654 1152.907894301237" stroke="#323232" stroke-width="2.0" stroke-dasharray="none" fill="none" marker-end="url(#ProcessOnMarker1079)"/></g><g id="ProcessOnG1081"><path id="ProcessOnPath1082" d="M317.0 1137.8470724218523C348.966446224075 1137.8470724218523 358.70022044259173 1106.8663082535581 375.43059868916697 1106.8663082535581" stroke="#323232" stroke-width="2.0" stroke-dasharray="none" fill="none" marker-end="url(#ProcessOnMarker1083)"/></g><g id="ProcessOnG1085"><path id="ProcessOnPath1086" d="M317.0 1137.8470724218523C352.23366150370737 1137.8470724218523 355.9330051629594 1185.3667914765983 375.93059868916697 1185.3667914765983" stroke="#323232" stroke-width="2.0" stroke-dasharray="none" fill="none" marker-end="url(#ProcessOnMarker1087)"/></g><g id="ProcessOnG1089" transform="matrix(1.0,0.0,0.0,1.0,60.0,919.0)" opacity="1.0"><path id="ProcessOnPath1090" d="M0.0 0.0L421.0 0.0L421.0 146.0L0.0 146.0Z" stroke="#323232" stroke-width="2.0" stroke-dasharray="none" opacity="1.0" fill="none"/><path id="ProcessOnPath1091" d="M0.0 0.0L40.0 0.0L40.0 146.0L0.0 146.0Z" stroke="#323232" stroke-width="2.0" stroke-dasharray="none" opacity="1.0" fill="#ffffff"/><g id="ProcessOnG1092" transform="matrix(0.0,-1.0,1.0,0.0,10.0,134.0)"><text id="ProcessOnText1093" fill="#000000" font-size="16" x="62.0" y="16.4" font-family="微软雅黑" font-weight="normal" font-style="normal" text-decoration="none" family="微软雅黑" text-anchor="middle" size="16">应用</text></g></g><g id="ProcessOnG1094" transform="matrix(1.0,0.0,0.0,1.0,60.0,1065.0)" opacity="1.0"><path id="ProcessOnPath1095" d="M0.0 0.0L421.0 0.0L421.0 261.3881370995182L0.0 261.3881370995182Z" stroke="#3333ff" stroke-width="2.0" stroke-dasharray="none" opacity="1.0" fill="none"/><path id="ProcessOnPath1096" d="M0.0 0.0L40.0 0.0L40.0 261.3881370995182L0.0 261.3881370995182Z" stroke="#3333ff" stroke-width="2.0" stroke-dasharray="none" opacity="1.0" fill="#99ff99"/><g id="ProcessOnG1097" transform="matrix(0.0,-1.0,1.0,0.0,10.0,249.3881370995182)"><text id="ProcessOnText1098" fill="#660000" font-size="16" x="119.6940685497591" y="16.4" font-family="微软雅黑" font-weight="bold" font-style="normal" text-decoration="none" family="微软雅黑" text-anchor="middle" size="16">jm-server</text></g></g></g></g></svg>